<?xml version="1.0" standalone="no"?>
<!DOCTYPE svg PUBLIC "-//W3C//DTD SVG 20010904//EN"
 "http://www.w3.org/TR/2001/REC-SVG-20010904/DTD/svg10.dtd">
<svg version="1.0" xmlns="http://www.w3.org/2000/svg"
 width="404.000000pt" height="404.000000pt" viewBox="0 0 404.000000 404.000000"
 preserveAspectRatio="xMidYMid meet">
<metadata>
Created by potrace 1.11, written by Peter Selinger 2001-2013
</metadata>
<g transform="translate(0.000000,404.000000) scale(0.100000,-0.100000)"
fill="#000000" stroke="none">
<path d="M1455 3694 c-92 -14 -153 -41 -290 -124 -23 -13 -59 -19 -152 -23
l-123 -5 -21 36 c-50 83 -90 101 -144 66 -40 -26 -111 -143 -140 -227 -60
-180 -37 -489 44 -579 28 -31 28 -33 13 -67 -45 -108 -125 -358 -144 -455 -30
-148 -33 -410 -5 -499 l18 -57 -25 -33 c-16 -20 -43 -39 -77 -50 -113 -41
-243 -156 -273 -244 -24 -69 -22 -216 3 -257 32 -50 79 -79 138 -84 29 -3 53
-6 53 -7 0 -1 -7 -20 -16 -41 -12 -27 -15 -61 -12 -124 3 -81 6 -91 40 -143
41 -61 111 -119 198 -164 49 -25 65 -28 151 -28 l97 0 12 -34 c17 -46 91 -116
161 -151 126 -64 262 -48 351 41 27 27 58 49 69 49 12 0 41 -23 70 -54 45 -49
96 -80 154 -92 11 -3 73 -4 138 -4 109 0 123 2 194 31 63 27 90 46 158 113 45
45 94 100 109 124 14 23 29 42 32 42 3 0 20 -12 39 -27 18 -14 43 -28 56 -30
29 -4 29 -4 36 -49 11 -73 8 -73 310 -49 441 35 734 92 853 163 181 110 296
245 341 402 20 69 17 281 -5 355 -9 33 -17 65 -17 70 0 6 14 48 32 95 31 81
32 93 36 255 4 158 3 177 -21 270 -49 189 -141 343 -297 497 -54 54 -118 111
-141 128 -38 28 -44 38 -59 100 -9 38 -12 73 -8 77 4 4 20 44 34 88 24 69 27
97 27 200 0 198 -35 293 -152 413 -68 69 -74 72 -117 72 -42 0 -51 -4 -92 -47
l-45 -48 -135 4 c-126 3 -157 9 -226 41 -91 43 -322 62 -443 37 -39 -9 -106
-32 -148 -51 -42 -20 -80 -36 -85 -36 -6 0 -41 16 -78 35 -108 56 -189 76
-326 80 -66 2 -133 1 -150 -1z"/>
</g>
</svg>
