<?xml version="1.0" encoding="UTF-8" ?>
<!DOCTYPE svg PUBLIC "-//W3C//DTD SVG 1.1//EN" "http://www.w3.org/Graphics/SVG/1.1/DTD/svg11.dtd">
<svg width="1113pt" height="1113pt" viewBox="0 0 1113 1113" version="1.1" xmlns="http://www.w3.org/2000/svg">
<g id="#c7b896ff">
<path fill="#c7b896" opacity="1.00" d=" M 552.23 0.00 L 560.72 0.00 C 644.64 0.46 728.38 20.30 803.52 57.71 C 914.71 112.50 1006.41 205.75 1059.37 317.82 C 1094.15 390.80 1112.53 471.44 1113.00 552.27 L 1113.00 564.55 C 1112.23 610.56 1106.06 656.51 1094.10 700.96 C 1075.43 770.21 1043.38 835.88 999.86 892.93 C 956.74 949.59 902.81 998.08 841.62 1034.54 C 775.92 1073.78 702.05 1099.32 626.09 1108.72 C 604.41 1111.39 582.59 1112.84 560.75 1113.00 L 552.30 1113.00 C 463.94 1112.54 375.81 1090.50 297.67 1049.26 C 186.87 991.31 96.74 894.76 46.79 780.11 C 16.74 712.13 0.93 638.02 0.00 563.73 L 0.00 553.13 C 0.32 467.48 20.90 382.03 59.60 305.62 C 92.40 240.52 138.35 182.18 193.54 134.60 C 246.74 88.69 308.76 53.06 375.21 30.22 C 432.03 10.52 492.11 0.41 552.23 0.00 M 550.38 78.50 C 460.21 79.37 370.50 106.62 295.15 156.15 C 233.37 196.49 181.11 251.32 143.85 315.00 C 108.61 374.91 86.81 442.66 80.51 511.88 C 72.25 599.50 88.54 689.38 127.78 768.21 C 159.80 833.13 206.88 890.50 264.14 934.76 C 307.85 968.63 357.49 994.84 410.14 1011.72 C 505.02 1042.32 609.52 1042.17 704.30 1011.25 C 777.56 987.56 844.78 945.64 898.50 890.51 C 950.49 837.43 989.83 772.06 1012.27 701.22 C 1040.90 611.18 1041.96 512.64 1015.38 421.98 C 1000.31 370.44 976.38 321.53 945.05 277.93 C 906.11 223.67 855.73 177.64 798.08 143.90 C 723.57 99.96 636.85 77.18 550.38 78.50 Z" />
<path fill="#c7b896" opacity="1.00" d=" M 229.72 254.86 C 257.48 245.74 286.69 240.92 315.93 241.11 C 349.65 241.54 383.17 251.33 411.78 269.19 C 458.32 298.09 492.55 346.39 503.87 400.04 C 508.18 419.32 508.09 439.25 506.58 458.85 C 504.61 482.23 499.51 505.49 489.97 526.98 C 477.28 556.03 456.19 581.14 430.19 599.19 C 399.21 621.09 362.94 633.61 327.08 644.99 C 288.18 656.98 248.61 666.64 208.93 675.64 C 206.49 676.25 203.97 676.29 201.47 676.39 C 222.00 668.88 242.52 661.24 262.57 652.50 C 280.01 645.09 297.27 636.84 312.49 625.42 C 335.45 608.61 353.34 584.94 362.85 558.10 C 370.79 536.36 373.74 513.08 373.72 490.02 C 373.40 449.98 356.10 411.10 329.31 381.73 C 306.70 356.74 276.22 338.70 243.06 332.18 C 216.67 327.03 189.33 329.08 163.24 334.93 C 178.91 307.60 197.04 281.58 218.07 258.10 C 222.09 257.56 225.94 256.30 229.72 254.86 Z" />
</g>
<g id="#a99158ff">
<path fill="#a99158" opacity="1.00" d=" M 389.29 137.29 C 443.68 115.61 502.37 104.70 560.92 105.53 C 597.64 105.75 633.91 112.61 669.65 120.55 C 692.28 125.42 714.11 133.43 735.35 142.56 C 801.10 171.01 859.71 215.57 905.02 271.03 C 944.78 319.63 974.28 376.62 990.73 437.23 C 1016.61 531.79 1010.67 634.84 973.52 725.61 C 946.20 793.06 902.10 853.57 846.45 900.43 C 784.05 953.33 706.93 988.62 626.08 1001.15 C 569.99 1009.85 512.26 1008.08 456.87 995.61 C 400.41 982.97 346.47 959.20 299.01 926.11 C 219.89 871.32 159.07 790.55 128.68 699.19 C 139.80 699.11 150.92 699.27 162.04 699.09 C 211.54 694.65 260.91 688.70 310.02 681.06 C 352.60 674.32 395.05 666.45 436.81 655.68 C 469.12 647.14 501.38 637.40 531.30 622.27 C 562.10 606.54 590.39 585.18 611.93 557.95 C 633.70 530.83 648.07 498.22 655.47 464.34 C 660.44 441.60 662.51 418.28 662.47 395.02 C 662.20 358.88 651.70 323.22 634.40 291.63 C 617.92 261.56 595.10 234.91 567.63 214.34 C 543.15 195.98 514.86 182.61 484.97 175.90 C 466.97 171.80 448.44 170.16 429.99 170.67 C 360.29 172.18 291.88 198.24 237.23 241.21 C 232.69 244.55 228.85 248.78 223.94 251.61 C 269.41 201.61 326.52 162.31 389.29 137.29 Z" />
</g>
<g id="#d7ccb3ff">
<path fill="#d7ccb3" opacity="1.00" d=" M 237.23 241.21 C 291.88 198.24 360.29 172.18 429.99 170.67 C 448.44 170.16 466.97 171.80 484.97 175.90 C 514.86 182.61 543.15 195.98 567.63 214.34 C 595.10 234.91 617.92 261.56 634.40 291.63 C 651.70 323.22 662.20 358.88 662.47 395.02 C 662.51 418.28 660.44 441.60 655.47 464.34 C 648.07 498.22 633.70 530.83 611.93 557.95 C 590.39 585.18 562.10 606.54 531.30 622.27 C 501.38 637.40 469.12 647.14 436.81 655.68 C 395.05 666.45 352.60 674.32 310.02 681.06 C 260.91 688.70 211.54 694.65 162.04 699.09 C 150.92 699.27 139.80 699.11 128.68 699.19 C 127.97 697.06 127.28 694.92 126.63 692.78 C 147.10 688.88 167.54 684.83 187.91 680.45 C 192.55 679.52 196.96 677.76 201.47 676.39 C 203.97 676.29 206.49 676.25 208.93 675.64 C 248.61 666.64 288.18 656.98 327.08 644.99 C 362.94 633.61 399.21 621.09 430.19 599.19 C 456.19 581.14 477.28 556.03 489.97 526.98 C 499.51 505.49 504.61 482.23 506.58 458.85 C 508.09 439.25 508.18 419.32 503.87 400.04 C 492.55 346.39 458.32 298.09 411.78 269.19 C 383.17 251.33 349.65 241.54 315.93 241.11 C 286.69 240.92 257.48 245.74 229.72 254.86 C 225.94 256.30 222.09 257.56 218.07 258.10 C 219.96 255.88 221.80 253.60 223.94 251.61 C 228.85 248.78 232.69 244.55 237.23 241.21 Z" />
</g>
</svg>
