<?xml version="1.0" encoding="UTF-8" ?>
<!DOCTYPE svg PUBLIC "-//W3C//DTD SVG 1.1//EN" "http://www.w3.org/Graphics/SVG/1.1/DTD/svg11.dtd">
<svg width="1113pt" height="1113pt" viewBox="0 0 1113 1113" version="1.1" xmlns="http://www.w3.org/2000/svg">
<g id="#384769ff">
<path fill="#384769" opacity="1.00" d=" M 552.32 0.00 L 560.63 0.00 C 644.77 0.50 728.73 20.40 804.02 57.98 C 916.28 113.44 1008.59 208.12 1061.19 321.75 C 1094.80 393.69 1112.49 472.91 1113.00 552.29 L 1113.00 564.64 C 1112.20 609.60 1106.32 654.51 1094.86 698.01 C 1076.04 769.48 1042.93 837.20 997.73 895.69 C 954.81 951.37 901.42 999.02 840.96 1034.92 C 773.65 1075.01 697.77 1100.71 619.90 1109.45 C 600.24 1111.65 580.47 1112.83 560.69 1113.00 L 552.31 1113.00 C 463.97 1112.52 375.86 1090.50 297.72 1049.27 C 186.03 990.87 95.36 893.23 45.62 777.40 C 16.44 710.43 1.11 637.63 0.00 564.62 L 0.00 548.43 C 0.48 530.24 1.36 512.04 3.50 493.97 C 10.94 426.00 31.44 359.56 63.05 298.96 C 94.39 238.83 137.00 184.68 187.72 139.72 C 241.81 91.70 305.41 54.45 373.74 30.76 C 431.02 10.70 491.65 0.46 552.32 0.00 M 543.35 78.60 C 474.37 80.41 405.80 97.32 344.05 128.13 C 279.44 160.15 222.33 207.08 178.24 264.12 C 134.82 320.06 104.12 385.81 89.20 455.04 C 69.00 548.45 77.25 647.93 113.46 736.44 C 140.66 803.60 183.53 864.29 237.51 912.59 C 281.45 952.03 332.76 983.26 388.03 1004.04 C 484.85 1040.69 593.66 1044.44 692.84 1014.85 C 766.68 993.01 834.94 952.80 890.02 899.01 C 941.67 848.85 981.75 786.85 1006.22 719.13 C 1039.23 628.14 1043.52 527.07 1018.61 433.56 C 1003.95 377.99 978.93 325.22 945.49 278.50 C 906.61 224.18 856.29 178.06 798.68 144.24 C 722.01 98.85 632.37 76.00 543.35 78.60 Z" />
<path fill="#384769" opacity="1.00" d=" M 251.48 248.64 C 283.21 241.25 316.54 238.28 348.73 244.48 C 389.58 252.18 427.13 274.40 454.84 305.21 C 479.44 332.32 497.17 365.95 504.27 401.95 C 508.60 423.04 508.06 444.80 505.85 466.11 C 501.91 502.83 488.81 539.26 464.70 567.62 C 454.97 579.55 443.27 589.73 430.85 598.76 C 401.70 619.48 367.74 631.86 333.99 642.84 C 292.30 656.10 249.74 666.40 207.09 676.09 C 205.24 676.46 203.33 676.36 201.46 676.42 C 217.95 670.35 234.48 664.31 250.71 657.54 C 271.89 648.70 293.33 639.70 311.87 625.91 C 334.75 609.33 352.69 585.99 362.40 559.42 C 370.21 538.54 373.42 516.18 373.71 493.96 C 374.52 457.58 360.87 421.76 338.88 393.09 C 319.80 368.20 293.82 348.40 264.14 337.98 C 231.89 326.28 196.36 327.39 163.30 334.92 C 178.97 307.48 197.21 281.45 218.28 257.88 C 223.38 257.64 227.97 255.22 232.79 253.81 C 238.97 251.93 245.17 250.09 251.48 248.64 Z" />
</g>
<g id="#556ea7ff">
<path fill="#556ea7" opacity="1.00" d=" M 474.05 112.92 C 519.76 104.65 566.88 102.80 612.89 109.79 C 633.41 112.85 653.79 116.88 674.00 121.60 C 694.91 126.39 715.06 133.95 734.76 142.35 C 802.47 171.54 862.65 217.80 908.56 275.47 C 949.02 326.21 978.38 385.76 993.69 448.84 C 1017.85 547.27 1007.76 653.85 964.76 745.70 C 935.35 809.17 890.80 865.50 836.02 908.97 C 771.04 960.76 691.44 994.00 608.87 1003.45 C 552.70 1010.03 495.28 1006.09 440.61 991.61 C 383.08 976.45 328.68 949.62 281.56 913.31 C 210.90 859.17 156.89 783.65 128.68 699.21 C 144.82 698.97 161.01 699.88 177.05 697.68 C 226.84 692.91 276.50 686.64 325.86 678.49 C 369.26 671.26 412.51 662.76 454.86 650.77 C 485.48 641.98 515.95 631.60 543.63 615.58 C 572.72 598.97 598.86 576.77 618.39 549.43 C 638.46 521.55 651.19 488.80 657.33 455.10 C 661.25 433.32 662.91 411.13 662.32 389.01 C 660.87 351.46 648.60 314.75 629.25 282.69 C 611.08 252.59 586.38 226.36 557.07 206.89 C 523.72 184.61 484.10 171.81 443.98 170.71 C 373.87 168.83 304.10 192.44 247.50 233.41 C 240.80 238.37 234.12 243.39 227.96 249.02 C 226.86 250.00 225.57 250.74 224.30 251.46 C 238.61 235.09 254.84 220.47 271.56 206.60 C 329.78 159.05 400.08 126.40 474.05 112.92 Z" />
</g>
<g id="#28334cff">
<path fill="#28334c" opacity="1.00" d=" M 247.50 233.41 C 304.10 192.44 373.87 168.83 443.98 170.71 C 484.10 171.81 523.72 184.61 557.07 206.89 C 586.38 226.36 611.08 252.59 629.25 282.69 C 648.60 314.75 660.87 351.46 662.32 389.01 C 662.91 411.13 661.25 433.32 657.33 455.10 C 651.19 488.80 638.46 521.55 618.39 549.43 C 598.86 576.77 572.72 598.97 543.63 615.58 C 515.95 631.60 485.48 641.98 454.86 650.77 C 412.51 662.76 369.26 671.26 325.86 678.49 C 276.50 686.64 226.84 692.91 177.05 697.68 C 161.01 699.88 144.82 698.97 128.68 699.21 C 127.98 697.07 127.33 694.92 126.64 692.79 C 147.20 688.88 167.73 684.81 188.19 680.41 C 192.74 679.51 197.01 677.59 201.46 676.42 C 203.33 676.36 205.24 676.46 207.09 676.09 C 249.74 666.40 292.30 656.10 333.99 642.84 C 367.74 631.86 401.70 619.48 430.85 598.76 C 443.27 589.73 454.97 579.55 464.70 567.62 C 488.81 539.26 501.91 502.83 505.85 466.11 C 508.06 444.80 508.60 423.04 504.27 401.95 C 497.17 365.95 479.44 332.32 454.84 305.21 C 427.13 274.40 389.58 252.18 348.73 244.48 C 316.54 238.28 283.21 241.25 251.48 248.64 C 245.17 250.09 238.97 251.93 232.79 253.81 C 227.97 255.22 223.38 257.64 218.28 257.88 C 220.25 255.72 221.93 253.21 224.30 251.46 C 225.57 250.74 226.86 250.00 227.96 249.02 C 234.12 243.39 240.80 238.37 247.50 233.41 Z" />
</g>
</svg>
