<?xml version="1.0" encoding="UTF-8" ?>
<!DOCTYPE svg PUBLIC "-//W3C//DTD SVG 1.1//EN" "http://www.w3.org/Graphics/SVG/1.1/DTD/svg11.dtd">
<svg width="557pt" height="791pt" viewBox="0 0 557 791" version="1.1" xmlns="http://www.w3.org/2000/svg">
<g id="#c7b896ff">
<path fill="#c7b896" opacity="1.00" d=" M 271.25 0.00 L 282.80 0.00 C 323.83 0.63 364.68 10.44 401.44 28.69 C 444.93 50.07 482.52 83.17 509.50 123.40 C 529.66 153.44 543.87 187.47 551.02 222.94 C 554.54 239.84 555.89 257.09 557.00 274.28 L 557.00 281.79 C 555.84 302.35 553.86 322.96 548.95 343.01 C 540.35 378.88 524.59 413.03 502.72 442.74 C 484.48 467.54 462.17 489.36 436.88 506.91 C 408.15 526.90 375.60 541.33 341.53 549.30 C 303.70 558.09 264.04 558.83 225.90 551.61 C 188.43 544.46 152.47 529.47 121.02 507.88 C 77.26 477.91 42.26 435.24 21.76 386.30 C 8.14 354.24 0.90 319.57 0.00 284.77 L 0.00 272.20 C 0.74 242.05 6.16 212.00 16.49 183.65 C 36.65 127.43 75.64 78.28 125.58 45.56 C 168.62 17.15 219.71 1.28 271.25 0.00 M 271.21 39.32 C 218.03 40.67 165.60 60.61 124.92 94.88 C 86.69 126.75 58.77 170.83 46.60 219.12 C 34.71 265.68 37.22 315.83 53.91 360.91 C 72.76 412.43 110.06 456.87 157.43 484.53 C 196.04 507.30 241.20 518.69 285.99 517.14 C 324.76 515.99 363.19 505.14 396.83 485.83 C 426.16 469.06 451.86 445.98 471.71 418.65 C 496.34 384.88 511.82 344.53 516.02 302.95 C 520.26 261.86 513.81 219.66 497.04 181.87 C 475.61 133.00 437.24 91.82 390.04 66.93 C 353.72 47.59 312.32 38.06 271.21 39.32 Z" />
<path fill="#c7b896" opacity="1.00" d=" M 119.93 126.08 C 135.12 121.52 151.18 119.69 166.99 121.13 C 182.06 122.76 196.76 128.15 209.24 136.78 C 230.14 150.98 245.56 173.08 251.44 197.67 C 254.99 212.32 254.23 227.68 251.51 242.39 C 248.11 260.65 239.41 278.05 225.79 290.81 C 211.46 304.68 192.72 312.75 174.07 319.01 C 153.78 325.95 132.88 330.83 112.09 336.00 C 109.98 336.52 107.79 336.47 105.63 336.56 C 119.05 331.16 132.75 326.30 145.56 319.50 C 158.60 312.50 170.02 302.10 177.00 288.94 C 185.15 273.71 187.70 255.96 186.56 238.88 C 183.07 203.09 154.06 170.68 118.10 165.50 C 106.03 163.70 93.69 164.83 81.82 167.40 C 89.32 153.74 98.44 140.90 108.86 129.33 C 112.61 128.44 116.28 127.30 119.93 126.08 Z" />
</g>
<g id="#a99158ff">
<path fill="#a99158" opacity="1.00" d=" M 236.07 56.61 C 254.42 53.14 273.22 51.99 291.86 53.21 C 304.08 54.17 316.19 56.29 328.18 58.81 C 353.66 63.73 377.79 74.44 399.62 88.33 C 442.67 115.84 475.87 158.42 491.86 206.97 C 506.54 251.05 507.08 299.69 493.43 344.09 C 483.63 376.20 466.44 406.01 443.66 430.68 C 419.12 457.34 388.07 477.98 353.94 490.16 C 309.29 506.21 259.54 507.56 214.05 494.08 C 166.80 480.23 124.54 450.23 95.68 410.36 C 82.22 391.87 71.59 371.31 64.33 349.63 L 65.06 349.64 C 72.04 349.57 79.04 349.91 86.00 349.18 C 128.43 344.98 170.82 339.25 212.34 329.36 C 228.76 325.27 245.13 320.61 260.57 313.59 C 278.84 305.17 295.59 292.88 307.72 276.71 C 323.71 255.72 330.57 229.07 331.17 203.00 C 332.53 171.51 318.67 140.50 296.67 118.35 C 277.60 98.97 251.32 86.61 224.06 85.43 C 183.66 83.65 143.57 99.09 112.88 125.01 C 113.49 124.23 114.12 123.47 114.77 122.73 C 146.96 88.73 190.02 65.16 236.07 56.61 Z" />
</g>
<g id="#d7ccb3ff">
<path fill="#d7ccb3" opacity="1.00" d=" M 112.88 125.01 C 143.57 99.09 183.66 83.65 224.06 85.43 C 251.32 86.61 277.60 98.97 296.67 118.35 C 318.67 140.50 332.53 171.51 331.17 203.00 C 330.57 229.07 323.71 255.72 307.72 276.71 C 295.59 292.88 278.84 305.17 260.57 313.59 C 245.13 320.61 228.76 325.27 212.34 329.36 C 170.82 339.25 128.43 344.98 86.00 349.18 C 79.04 349.91 72.04 349.57 65.06 349.64 L 64.37 349.57 C 64.08 348.80 63.50 347.26 63.20 346.49 C 77.37 343.31 91.96 341.63 105.63 336.56 C 107.79 336.47 109.98 336.52 112.09 336.00 C 132.88 330.83 153.78 325.95 174.07 319.01 C 192.72 312.75 211.46 304.68 225.79 290.81 C 239.41 278.05 248.11 260.65 251.51 242.39 C 254.23 227.68 254.99 212.32 251.44 197.67 C 245.56 173.08 230.14 150.98 209.24 136.78 C 196.76 128.15 182.06 122.76 166.99 121.13 C 151.18 119.69 135.12 121.52 119.93 126.08 C 116.28 127.30 112.61 128.44 108.86 129.33 C 110.08 127.79 111.31 126.22 112.88 125.01 Z" />
</g>
<g id="#f4e8ccff">
<path fill="#f4e8cc" opacity="1.00" d=" M 113.50 581.50 C 137.96 581.44 162.43 581.60 186.90 581.43 C 187.00 583.73 187.02 586.05 187.01 588.37 C 187.00 590.50 186.99 592.64 186.99 594.78 C 171.80 607.31 156.95 620.25 141.86 632.90 C 137.53 636.82 132.75 640.26 128.67 644.46 C 133.93 644.53 139.19 644.48 144.46 644.52 C 158.62 644.44 172.77 644.58 186.93 644.45 C 187.00 646.75 187.03 649.06 187.00 651.37 C 186.99 652.76 186.95 654.15 186.92 655.55 C 163.63 655.45 140.34 655.53 117.05 655.51 C 115.87 655.50 114.68 655.50 113.50 655.50 C 113.49 651.25 113.53 647.01 113.46 642.77 C 128.93 629.20 144.78 616.06 160.47 602.74 C 164.16 599.43 168.07 596.36 171.75 593.03 C 153.52 592.96 135.30 593.01 117.08 593.01 C 116.18 593.01 114.39 593.00 113.50 593.00 C 113.50 589.16 113.50 585.33 113.50 581.50 Z" />
<path fill="#f4e8cc" opacity="1.00" d=" M 212.44 581.58 C 226.97 581.37 241.51 581.58 256.04 581.48 C 259.67 581.40 263.56 581.82 266.63 583.94 C 269.50 585.72 271.17 588.85 272.35 591.93 C 272.70 613.11 272.41 634.31 272.49 655.50 C 269.95 655.49 267.42 655.50 264.88 655.50 C 264.04 655.50 262.35 655.50 261.50 655.50 C 261.49 649.86 261.50 644.23 261.50 638.59 C 261.50 635.56 261.49 632.53 261.49 629.51 C 244.50 629.50 227.50 629.50 210.51 629.51 C 210.48 638.18 210.53 646.86 210.49 655.53 C 206.84 655.51 203.20 655.35 199.57 655.46 C 199.41 634.97 199.55 614.48 199.49 593.99 C 199.54 587.19 205.85 581.77 212.44 581.58 M 210.74 592.99 C 210.21 601.47 210.64 609.99 210.51 618.49 C 212.39 618.49 214.27 618.49 216.15 618.50 C 231.27 618.49 246.38 618.50 261.50 618.50 C 261.50 613.04 261.50 607.58 261.49 602.13 C 261.47 599.45 261.63 596.78 261.41 594.12 C 260.51 592.49 258.45 593.12 256.97 592.97 C 241.56 593.03 226.15 592.99 210.74 592.99 Z" />
<path fill="#f4e8cc" opacity="1.00" d=" M 284.49 593.93 C 284.58 586.88 291.32 581.47 298.12 581.53 C 313.38 581.47 328.64 581.48 343.91 581.53 C 350.16 581.54 355.62 585.99 357.35 591.92 C 357.71 613.10 357.41 634.30 357.49 655.50 C 354.95 655.49 352.41 655.50 349.88 655.50 C 349.03 655.50 347.35 655.50 346.50 655.50 C 346.49 649.86 346.50 644.22 346.50 638.59 C 346.50 635.56 346.49 632.53 346.49 629.51 C 329.49 629.50 312.50 629.50 295.51 629.51 C 295.48 638.18 295.54 646.86 295.48 655.53 C 291.84 655.52 288.20 655.34 284.56 655.45 C 284.42 634.94 284.54 614.44 284.49 593.93 M 295.73 593.00 C 295.22 601.48 295.64 609.99 295.51 618.49 C 297.39 618.48 299.27 618.50 301.16 618.51 C 316.27 618.49 331.38 618.50 346.50 618.50 C 346.50 613.04 346.50 607.58 346.49 602.12 C 346.47 599.44 346.63 596.77 346.40 594.11 C 345.54 592.50 343.48 593.14 342.04 592.97 C 326.60 593.03 311.17 592.99 295.73 593.00 Z" />
<path fill="#f4e8cc" opacity="1.00" d=" M 369.50 655.50 C 369.50 630.83 369.50 606.17 369.50 581.50 C 373.73 581.48 377.95 581.55 382.18 581.45 C 399.17 600.86 415.13 621.20 431.97 640.75 C 432.04 621.00 431.98 601.25 432.00 581.50 C 435.66 581.49 439.33 581.49 443.00 581.50 C 443.00 583.78 443.00 586.07 443.00 588.37 C 443.00 610.74 443.00 633.12 443.00 655.49 C 438.65 655.40 434.28 655.74 429.95 655.37 C 427.96 653.91 426.69 651.72 425.09 649.89 C 410.24 632.13 395.66 614.15 380.55 596.62 C 380.43 616.25 380.55 635.87 380.49 655.50 C 377.98 655.49 375.48 655.49 372.98 655.50 C 372.11 655.50 370.37 655.50 369.50 655.50 Z" />
<path fill="#f4e8cc" opacity="1.00" d=" M 81.62 706.52 C 97.36 706.51 113.10 706.43 128.84 706.56 C 134.85 706.55 140.27 710.80 141.98 716.51 C 142.32 719.16 142.48 721.82 142.57 724.49 C 138.92 724.51 135.27 724.51 131.62 724.49 C 131.52 722.35 131.35 720.23 131.02 718.12 C 114.30 717.81 97.56 718.16 80.84 717.94 C 80.32 719.57 79.90 721.25 79.97 722.99 C 80.04 737.33 79.98 751.67 80.00 766.01 C 79.72 767.53 80.90 768.54 81.76 769.62 C 83.03 769.55 84.31 769.51 85.59 769.50 C 100.32 769.45 115.06 769.58 129.79 769.44 C 132.66 767.26 131.13 763.18 131.50 760.12 C 131.50 757.07 131.50 754.04 131.49 751.00 C 126.80 751.00 122.11 751.00 117.41 751.00 C 116.56 751.00 114.85 751.00 114.00 751.00 C 114.00 747.33 114.00 743.66 114.00 740.00 C 123.52 740.05 133.04 739.89 142.56 740.08 C 142.51 742.32 142.49 744.58 142.50 746.83 C 142.36 753.98 142.81 761.16 142.27 768.29 C 141.85 774.99 135.67 780.62 128.98 780.50 C 113.33 780.51 97.67 780.51 82.02 780.50 C 78.62 780.61 75.62 778.77 72.97 776.86 C 70.13 773.60 68.84 769.26 68.99 764.98 C 69.06 749.94 68.91 734.90 69.06 719.87 C 69.10 713.02 74.87 707.13 81.62 706.52 Z" />
<path fill="#f4e8cc" opacity="1.00" d=" M 154.49 718.94 C 154.58 711.91 161.27 706.50 168.05 706.54 C 183.34 706.47 198.64 706.48 213.93 706.53 C 220.17 706.55 225.61 710.99 227.35 716.91 C 227.71 738.09 227.41 759.30 227.50 780.49 C 224.96 780.49 222.42 780.50 219.89 780.50 C 219.04 780.50 217.35 780.50 216.50 780.50 C 216.49 774.86 216.50 769.22 216.50 763.59 C 216.50 760.56 216.49 757.53 216.49 754.51 C 199.50 754.50 182.50 754.50 165.51 754.51 C 165.48 763.18 165.54 771.86 165.48 780.53 C 161.82 780.49 158.16 780.41 154.51 780.43 C 154.48 759.93 154.51 739.43 154.49 718.94 M 165.75 717.99 C 165.19 726.47 165.65 734.99 165.51 743.49 C 167.37 743.48 169.23 743.49 171.10 743.50 C 186.23 743.50 201.37 743.50 216.50 743.50 C 216.50 738.04 216.50 732.60 216.50 727.15 C 216.47 724.47 216.63 721.79 216.41 719.13 C 215.53 717.49 213.45 718.13 211.98 717.97 C 196.57 718.03 181.16 718.00 165.75 717.99 Z" />
<path fill="#f4e8cc" opacity="1.00" d=" M 334.05 706.47 C 356.34 706.51 378.63 706.55 400.93 706.45 C 401.00 708.75 401.01 711.06 401.01 713.37 C 401.00 714.91 400.99 716.44 401.00 718.00 C 382.33 718.01 363.67 718.00 345.00 718.00 C 345.00 724.66 345.00 731.33 345.00 737.99 C 346.86 737.99 348.72 737.99 350.59 738.00 C 363.72 738.00 376.86 738.00 389.99 738.00 C 390.00 740.36 390.01 742.72 390.01 745.08 C 390.00 746.38 390.00 747.69 389.99 749.00 C 375.00 749.01 360.00 749.00 345.00 749.00 C 345.02 755.84 344.94 762.68 345.06 769.53 C 346.90 769.50 348.75 769.49 350.60 769.50 C 367.40 769.50 384.20 769.49 401.00 769.50 C 401.00 771.78 401.02 774.07 401.00 776.37 C 400.98 777.76 400.94 779.16 400.91 780.57 C 379.74 780.42 358.57 780.54 337.40 780.51 C 336.57 780.52 334.91 780.54 334.08 780.56 C 333.93 755.86 333.99 731.16 334.05 706.47 Z" />
<path fill="#f4e8cc" opacity="1.00" d=" M 413.62 719.17 C 413.97 712.26 420.27 706.52 427.14 706.53 C 442.60 706.52 458.06 706.40 473.52 706.59 C 479.23 706.59 484.52 710.52 486.15 716.00 C 486.73 718.79 486.95 721.64 487.10 724.50 C 483.43 724.50 479.77 724.50 476.12 724.50 C 476.09 722.27 475.88 720.07 475.20 717.95 C 458.45 718.15 441.70 717.80 424.95 718.13 C 424.23 724.67 424.22 731.33 424.96 737.87 C 426.63 737.92 428.30 737.97 429.98 738.01 C 445.14 737.99 460.29 738.00 475.45 738.00 C 480.25 738.99 484.53 742.52 486.15 747.16 C 487.42 754.05 487.12 761.13 486.79 768.10 C 486.49 775.04 479.96 780.82 473.06 780.52 C 457.68 780.49 442.29 780.49 426.90 780.52 C 423.13 780.69 419.65 778.78 417.03 776.22 C 413.90 772.58 413.26 767.62 413.48 763.00 C 417.17 763.00 420.85 762.95 424.54 763.06 C 424.63 765.31 423.66 768.20 426.25 769.44 C 442.21 769.53 458.19 769.56 474.16 769.43 C 477.63 766.86 475.33 761.60 476.00 757.93 C 475.75 755.08 476.88 751.63 474.70 749.33 C 473.19 748.84 471.58 749.01 470.04 748.96 C 455.34 749.04 440.64 748.99 425.94 749.00 C 422.54 749.17 419.64 747.15 417.18 745.06 C 414.90 742.22 413.51 738.74 413.51 735.08 C 413.54 729.78 413.34 724.46 413.62 719.17 Z" />
<path fill="#f4e8cc" opacity="1.00" d=" M 239.57 780.47 C 239.41 755.81 239.54 731.15 239.50 706.50 C 243.74 706.48 247.98 706.53 252.21 706.46 C 262.11 717.64 271.41 729.36 281.05 740.77 C 290.77 729.46 300.00 717.72 309.77 706.46 C 314.01 706.54 318.25 706.48 322.50 706.50 C 322.50 708.79 322.50 711.08 322.50 713.38 C 322.50 735.75 322.51 758.12 322.49 780.50 C 319.97 780.49 317.46 780.50 314.94 780.50 C 314.08 780.50 312.36 780.50 311.50 780.50 C 311.49 766.04 311.50 751.58 311.50 737.12 C 311.49 732.01 311.52 726.90 311.47 721.80 C 301.16 733.65 291.19 745.82 281.32 758.03 C 270.80 745.97 260.76 733.49 250.47 721.23 C 250.54 741.00 250.50 760.76 250.49 780.52 C 246.85 780.52 243.21 780.34 239.57 780.47 Z" />
</g>
<g id="#63636362">
<path fill="#636363" opacity="0.38" d=" M 187.01 588.37 C 188.75 588.43 190.53 588.28 192.23 588.74 C 193.03 593.56 192.45 598.53 192.50 603.41 C 177.38 615.97 162.54 628.86 147.47 641.47 C 146.40 642.42 145.43 643.46 144.46 644.52 C 139.19 644.48 133.93 644.53 128.67 644.46 C 132.75 640.26 137.53 636.82 141.86 632.90 C 156.95 620.25 171.80 607.31 186.99 594.78 C 186.99 592.64 187.00 590.50 187.01 588.37 Z" />
<path fill="#636363" opacity="0.38" d=" M 443.00 588.37 C 444.74 588.45 446.54 588.24 448.24 588.76 C 448.75 590.45 448.56 592.25 448.61 594.01 C 448.45 617.46 448.82 640.92 448.43 664.37 C 443.49 664.77 438.53 664.57 433.58 664.53 C 417.80 645.68 402.33 626.58 386.31 607.94 C 385.96 623.27 386.26 638.61 386.16 653.94 C 386.01 657.48 386.68 661.14 385.51 664.57 C 381.51 664.59 377.52 664.59 373.53 664.58 C 372.39 661.67 372.85 658.52 372.98 655.50 C 375.48 655.49 377.98 655.49 380.49 655.50 C 380.55 635.87 380.43 616.25 380.55 596.62 C 395.66 614.15 410.24 632.13 425.09 649.89 C 426.69 651.72 427.96 653.91 429.95 655.37 C 434.28 655.74 438.65 655.40 443.00 655.49 C 443.00 633.12 443.00 610.74 443.00 588.37 Z" />
<path fill="#636363" opacity="0.38" d=" M 272.35 591.93 C 276.38 593.81 278.06 598.82 278.16 603.01 C 278.17 620.67 278.15 638.33 278.17 655.99 C 278.14 658.85 278.48 661.81 277.50 664.57 C 273.50 664.59 269.50 664.59 265.51 664.57 C 264.43 661.66 264.88 658.52 264.88 655.50 C 267.42 655.50 269.95 655.49 272.49 655.50 C 272.41 634.31 272.70 613.11 272.35 591.93 Z" />
<path fill="#636363" opacity="0.38" d=" M 357.35 591.92 C 361.37 593.83 363.08 598.82 363.16 603.03 C 363.18 622.05 363.12 641.06 363.19 660.08 C 363.26 661.60 362.96 663.10 362.53 664.56 C 358.51 664.60 354.50 664.59 350.49 664.57 C 349.43 661.65 349.89 658.52 349.88 655.50 C 352.41 655.50 354.95 655.49 357.49 655.50 C 357.41 634.30 357.71 613.10 357.35 591.92 Z" />
<path fill="#636363" opacity="0.38" d=" M 117.08 593.01 C 135.30 593.01 153.52 592.96 171.75 593.03 C 168.07 596.36 164.16 599.43 160.47 602.74 C 157.49 601.56 154.19 602.38 151.07 602.16 C 139.77 601.94 128.43 602.60 117.17 601.82 C 116.70 598.90 116.71 595.94 117.08 593.01 Z" />
<path fill="#636363" opacity="0.38" d=" M 210.74 592.99 C 226.15 592.99 241.56 593.03 256.97 592.97 C 258.45 593.12 260.51 592.49 261.41 594.12 C 261.63 596.78 261.47 599.45 261.49 602.13 C 246.41 602.24 231.32 602.07 216.24 602.21 C 216.10 607.64 216.18 613.07 216.15 618.50 C 214.27 618.49 212.39 618.49 210.51 618.49 C 210.64 609.99 210.21 601.47 210.74 592.99 Z" />
<path fill="#636363" opacity="0.38" d=" M 295.73 593.00 C 311.17 592.99 326.60 593.03 342.04 592.97 C 343.48 593.14 345.54 592.50 346.40 594.11 C 346.63 596.77 346.47 599.44 346.49 602.12 C 331.41 602.26 316.32 602.05 301.23 602.22 C 301.11 607.65 301.18 613.08 301.16 618.51 C 299.27 618.50 297.39 618.48 295.51 618.49 C 295.64 609.99 295.22 601.48 295.73 593.00 Z" />
<path fill="#636363" opacity="0.38" d=" M 210.51 629.51 C 227.50 629.50 244.50 629.50 261.49 629.51 C 261.49 632.53 261.50 635.56 261.50 638.59 C 246.38 638.73 231.25 638.29 216.14 638.81 C 216.19 645.89 216.13 652.96 216.19 660.04 C 216.26 661.58 215.95 663.10 215.50 664.58 C 211.44 664.58 207.38 664.63 203.33 664.51 C 202.50 661.67 202.89 658.68 202.83 655.78 C 201.86 655.71 199.93 655.56 198.97 655.48 L 199.57 655.46 C 203.20 655.35 206.84 655.51 210.49 655.53 C 210.53 646.86 210.48 638.18 210.51 629.51 Z" />
<path fill="#636363" opacity="0.38" d=" M 295.51 629.51 C 312.50 629.50 329.49 629.50 346.49 629.51 C 346.49 632.53 346.50 635.56 346.50 638.59 C 331.39 638.69 316.27 638.37 301.17 638.75 C 300.77 647.33 301.96 656.08 300.53 664.56 C 296.48 664.59 292.43 664.61 288.38 664.53 C 287.46 661.71 287.91 658.70 287.82 655.80 C 286.83 655.71 284.86 655.55 283.88 655.47 L 284.56 655.45 C 288.20 655.34 291.84 655.52 295.48 655.53 C 295.54 646.86 295.48 638.18 295.51 629.51 Z" />
<path fill="#636363" opacity="0.38" d=" M 187.00 651.37 C 188.69 651.74 191.45 650.61 192.43 652.38 C 192.65 656.30 192.88 660.32 192.27 664.22 C 190.89 664.69 189.40 664.54 187.98 664.61 C 164.47 664.53 140.96 664.65 117.45 664.55 C 116.47 661.62 116.78 658.51 117.05 655.51 C 140.34 655.53 163.63 655.45 186.92 655.55 C 186.95 654.15 186.99 652.76 187.00 651.37 Z" />
<path fill="#636363" opacity="0.38" d=" M 322.50 713.38 C 324.17 713.40 325.85 713.43 327.52 713.45 C 327.89 714.60 328.11 715.78 328.17 717.00 C 328.16 740.01 328.16 763.03 328.17 786.04 C 328.10 787.22 327.90 788.39 327.55 789.55 C 323.51 789.60 319.46 789.61 315.42 789.54 C 314.50 786.60 314.82 783.51 314.94 780.50 C 317.46 780.50 319.97 780.49 322.49 780.50 C 322.51 758.12 322.50 735.75 322.50 713.38 Z" />
<path fill="#636363" opacity="0.38" d=" M 401.01 713.37 C 402.74 713.44 404.55 713.24 406.24 713.76 C 407.02 717.94 406.40 722.27 406.57 726.51 C 405.09 726.96 403.57 727.25 402.03 727.19 C 384.94 727.13 367.85 727.18 350.77 727.16 C 350.46 730.76 350.60 734.38 350.59 738.00 C 348.72 737.99 346.86 737.99 345.00 737.99 C 345.00 731.33 345.00 724.66 345.00 718.00 C 363.67 718.00 382.33 718.01 401.00 718.00 C 400.99 716.44 401.00 714.91 401.01 713.37 Z" />
<path fill="#636363" opacity="0.38" d=" M 486.15 716.00 C 491.80 719.79 493.15 727.06 492.41 733.40 C 488.15 733.68 483.87 733.70 479.62 733.38 C 479.12 731.27 480.51 726.85 477.11 727.19 C 461.51 727.28 445.89 726.85 430.31 727.42 C 430.13 730.94 430.23 734.48 429.98 738.01 C 428.30 737.97 426.63 737.92 424.96 737.87 C 424.22 731.33 424.23 724.67 424.95 718.13 C 441.70 717.80 458.45 718.15 475.20 717.95 C 475.88 720.07 476.09 722.27 476.12 724.50 C 479.77 724.50 483.43 724.50 487.10 724.50 C 486.95 721.64 486.73 718.79 486.15 716.00 Z" />
<path fill="#636363" opacity="0.38" d=" M 141.98 716.51 C 147.58 719.94 149.11 727.62 147.50 733.57 C 143.51 733.59 139.51 733.59 135.51 733.58 C 134.86 731.55 134.69 729.44 134.58 727.35 C 119.04 726.94 103.48 727.23 87.94 727.19 C 86.08 726.72 85.35 728.37 85.60 729.95 C 85.56 743.13 85.60 756.32 85.59 769.50 C 84.31 769.51 83.03 769.55 81.76 769.62 C 80.90 768.54 79.72 767.53 80.00 766.01 C 79.98 751.67 80.04 737.33 79.97 722.99 C 79.90 721.25 80.32 719.57 80.84 717.94 C 97.56 718.16 114.30 717.81 131.02 718.12 C 131.35 720.23 131.52 722.35 131.62 724.49 C 135.27 724.51 138.92 724.51 142.57 724.49 C 142.48 721.82 142.32 719.16 141.98 716.51 Z" />
<path fill="#636363" opacity="0.38" d=" M 227.35 716.91 C 231.37 718.81 233.06 723.80 233.16 728.00 C 233.17 745.65 233.15 763.30 233.17 780.95 C 233.12 783.82 233.49 786.78 232.53 789.56 C 228.51 789.60 224.49 789.59 220.48 789.57 C 219.49 786.63 219.84 783.52 219.89 780.50 C 222.42 780.50 224.96 780.49 227.50 780.49 C 227.41 759.30 227.71 738.09 227.35 716.91 Z" />
<path fill="#636363" opacity="0.38" d=" M 165.75 717.99 C 181.16 718.00 196.57 718.03 211.98 717.97 C 213.45 718.13 215.53 717.49 216.41 719.13 C 216.63 721.79 216.47 724.47 216.50 727.15 C 201.41 727.22 186.32 727.07 171.23 727.22 C 171.10 732.65 171.22 738.07 171.10 743.50 C 169.23 743.49 167.37 743.48 165.51 743.49 C 165.65 734.99 165.19 726.47 165.75 717.99 Z" />
<path fill="#636363" opacity="0.38" d=" M 250.47 721.23 C 260.76 733.49 270.80 745.97 281.32 758.03 C 291.19 745.82 301.16 733.65 311.47 721.80 C 311.52 726.90 311.49 732.01 311.50 737.12 C 302.94 746.41 295.32 756.54 287.08 766.11 C 286.38 767.26 284.74 766.98 284.06 765.98 C 274.72 755.06 265.86 743.72 256.30 733.00 C 255.99 750.66 256.24 768.32 256.17 785.98 C 256.12 787.20 255.90 788.39 255.50 789.57 C 251.46 789.58 247.42 789.62 243.37 789.53 C 242.48 786.69 242.91 783.68 242.80 780.77 C 241.84 780.70 239.92 780.56 238.96 780.49 L 239.57 780.47 C 243.21 780.34 246.85 780.52 250.49 780.52 C 250.50 760.76 250.54 741.00 250.47 721.23 Z" />
<path fill="#636363" opacity="0.38" d=" M 390.01 745.08 C 391.89 744.74 393.78 744.75 395.57 745.50 C 395.59 749.51 395.60 753.51 395.56 757.52 C 394.09 757.97 392.56 758.26 391.02 758.19 C 377.60 758.13 364.18 758.17 350.77 758.16 C 350.45 761.93 350.61 765.72 350.60 769.50 C 348.75 769.49 346.90 769.50 345.06 769.53 C 344.94 762.68 345.02 755.84 345.00 749.00 C 360.00 749.00 375.00 749.01 389.99 749.00 C 390.00 747.69 390.00 746.38 390.01 745.08 Z" />
<path fill="#636363" opacity="0.38" d=" M 417.18 745.06 C 419.64 747.15 422.54 749.17 425.94 749.00 C 440.64 748.99 455.34 749.04 470.04 748.96 C 471.58 749.01 473.19 748.84 474.70 749.33 C 476.88 751.63 475.75 755.08 476.00 757.93 C 461.01 758.48 445.98 757.99 430.97 758.18 C 423.84 758.48 417.40 752.10 417.18 745.06 Z" />
<path fill="#636363" opacity="0.38" d=" M 142.50 746.83 C 144.29 746.81 146.09 746.95 147.88 747.20 C 148.47 752.78 148.04 758.40 148.16 764.01 C 148.02 769.88 148.83 776.06 146.55 781.64 C 144.11 786.16 139.25 789.70 133.97 789.59 C 118.32 789.60 102.68 789.56 87.03 789.61 C 80.01 790.07 72.90 784.05 72.97 776.86 C 75.62 778.77 78.62 780.61 82.02 780.50 C 97.67 780.51 113.33 780.51 128.98 780.50 C 135.67 780.62 141.85 774.99 142.27 768.29 C 142.81 761.16 142.36 753.98 142.50 746.83 Z" />
<path fill="#636363" opacity="0.38" d=" M 486.15 747.16 C 488.59 749.69 491.57 752.24 491.99 755.97 C 493.01 762.56 492.57 769.28 492.46 775.93 C 492.31 783.38 485.45 789.89 478.01 789.60 C 462.34 789.58 446.66 789.57 430.99 789.60 C 423.73 789.82 417.42 783.33 417.03 776.22 C 419.65 778.78 423.13 780.69 426.90 780.52 C 442.29 780.49 457.68 780.49 473.06 780.52 C 479.96 780.82 486.49 775.04 486.79 768.10 C 487.12 761.13 487.42 754.05 486.15 747.16 Z" />
<path fill="#636363" opacity="0.38" d=" M 117.41 751.00 C 122.11 751.00 126.80 751.00 131.49 751.00 C 131.50 754.04 131.50 757.07 131.50 760.12 C 126.82 759.90 121.99 760.84 117.43 759.50 C 117.43 756.66 117.40 753.83 117.41 751.00 Z" />
<path fill="#636363" opacity="0.38" d=" M 165.51 754.51 C 182.50 754.50 199.50 754.50 216.49 754.51 C 216.49 757.53 216.50 760.56 216.50 763.59 C 201.38 763.75 186.24 763.26 171.14 763.83 C 171.20 770.86 171.13 777.90 171.19 784.94 C 171.26 786.50 170.94 788.05 170.52 789.57 C 166.48 789.59 162.44 789.61 158.41 789.54 C 157.42 786.72 157.94 783.68 157.79 780.77 C 156.83 780.69 154.90 780.52 153.93 780.44 L 154.51 780.43 C 158.16 780.41 161.82 780.49 165.48 780.53 C 165.54 771.86 165.48 763.18 165.51 754.51 Z" />
<path fill="#636363" opacity="0.38" d=" M 401.00 776.37 C 402.74 776.44 404.54 776.24 406.24 776.76 C 406.83 780.83 406.83 785.13 406.25 789.21 C 404.57 789.79 402.73 789.52 401.00 789.61 C 379.87 789.43 358.72 789.85 337.60 789.40 C 337.39 786.43 337.36 783.46 337.40 780.51 C 358.57 780.54 379.74 780.42 400.91 780.57 C 400.94 779.16 400.98 777.76 401.00 776.37 Z" />
</g>
</svg>
